<mxfile host="app.diagrams.net" modified="2024-01-17T15:20:53.560Z" agent="Mozilla/5.0 (Windows NT 10.0; Win64; x64) AppleWebKit/537.36 (KHTML, like Gecko) Chrome/120.0.0.0 Safari/537.36 Edg/120.0.0.0" etag="PQfXSoPgbJnWhIuxJnxV" version="22.1.18" type="github">
  <diagram id="6a731a19-8d31-9384-78a2-239565b7b9f0" name="Page-1">
    <mxGraphModel dx="2658" dy="1525" grid="1" gridSize="10" guides="1" tooltips="1" connect="1" arrows="1" fold="1" page="1" pageScale="1" pageWidth="1169" pageHeight="827" background="none" math="0" shadow="0">
      <root>
        <mxCell id="0" />
        <mxCell id="1" parent="0" />
        <mxCell id="1350" value="Data" style="ellipse;whiteSpace=wrap;html=1;shadow=0;fontFamily=Helvetica;fontSize=20;align=center;strokeWidth=3;fillColor=#b0e3e6;strokeColor=#0e8088;" parent="1" vertex="1">
          <mxGeometry x="729.0757660167131" y="631.9138490007402" width="100.07799442896936" height="98.94892672094744" as="geometry" />
        </mxCell>
        <mxCell id="1351" value="Diseases" style="ellipse;whiteSpace=wrap;html=1;shadow=0;fontFamily=Helvetica;fontSize=20;align=center;strokeWidth=3;fillColor=#ffe6cc;strokeColor=#d79b00;" parent="1" vertex="1">
          <mxGeometry x="1117.1689972144845" y="358.1819022945966" width="100.07799442896936" height="98.94892672094744" as="geometry" />
        </mxCell>
        <mxCell id="1352" value="Treatments" style="ellipse;whiteSpace=wrap;html=1;shadow=0;fontFamily=Helvetica;fontSize=20;align=center;strokeWidth=3;fillColor=#f8cecc;strokeColor=#b85450;" parent="1" vertex="1">
          <mxGeometry x="1500.8161002785516" y="615.8610362694301" width="100.07799442896936" height="98.94892672094744" as="geometry" />
        </mxCell>
        <mxCell id="1353" value="Evaluation" style="ellipse;whiteSpace=wrap;html=1;shadow=0;fontFamily=Helvetica;fontSize=20;align=center;strokeWidth=3;fillColor=#d5e8d4;strokeColor=#82b366;" parent="1" vertex="1">
          <mxGeometry x="1377.3773259052925" y="1112.8276239822355" width="100.07799442896936" height="98.94892672094744" as="geometry" />
        </mxCell>
        <mxCell id="1357" value="Ant" style="rounded=1;fillColor=#ffe6cc;strokeColor=#d79b00;strokeWidth=3;shadow=0;html=1;" parent="1" vertex="1">
          <mxGeometry x="1010.4211699164346" y="490.1095484826055" width="100.07799442896936" height="32.98297557364915" as="geometry" />
        </mxCell>
        <mxCell id="1358" value="Dolphin" style="rounded=1;fillColor=#b0e3e6;strokeColor=#0e8088;strokeWidth=3;shadow=0;html=1;" parent="1" vertex="1">
          <mxGeometry x="541.3013370473539" y="735.831495188749" width="108.41782729805014" height="32.98297557364915" as="geometry" />
        </mxCell>
        <mxCell id="1359" style="endArrow=none;strokeWidth=6;strokeColor=#0e8088;html=1;fillColor=#b0e3e6;exitX=0.012;exitY=0.316;exitDx=0;exitDy=0;exitPerimeter=0;" parent="1" source="1515" target="1350" edge="1">
          <mxGeometry relative="1" as="geometry">
            <mxPoint x="1380" y="910" as="sourcePoint" />
          </mxGeometry>
        </mxCell>
        <mxCell id="1360" style="endArrow=none;strokeWidth=6;strokeColor=#f08705;html=1;exitX=0.5;exitY=0;exitDx=0;exitDy=0;exitPerimeter=0;" parent="1" source="3Zd3EnEe8cSmom2aT_vs-1542" target="1351" edge="1">
          <mxGeometry relative="1" as="geometry" />
        </mxCell>
        <mxCell id="1361" style="endArrow=none;strokeWidth=6;strokeColor=#E85642;html=1;exitX=1;exitY=0.367;exitDx=0;exitDy=0;exitPerimeter=0;" parent="1" source="3Zd3EnEe8cSmom2aT_vs-1542" target="1352" edge="1">
          <mxGeometry relative="1" as="geometry">
            <mxPoint x="960" y="910" as="sourcePoint" />
          </mxGeometry>
        </mxCell>
        <mxCell id="1362" style="endArrow=none;strokeWidth=6;strokeColor=#006600;html=1;fillColor=#cdeb8b;exitX=0.815;exitY=1;exitDx=0;exitDy=0;exitPerimeter=0;" parent="1" source="3Zd3EnEe8cSmom2aT_vs-1542" target="1353" edge="1">
          <mxGeometry relative="1" as="geometry">
            <mxPoint x="1020" y="630" as="sourcePoint" />
          </mxGeometry>
        </mxCell>
        <mxCell id="1367" value="Lion" style="rounded=1;fillColor=#b0e3e6;strokeColor=#0e8088;strokeWidth=3;shadow=0;html=1;" parent="1" vertex="1">
          <mxGeometry x="791.9133147632313" y="636.8825684678017" width="108.41782729805014" height="32.98297557364915" as="geometry" />
        </mxCell>
        <mxCell id="1368" value="Elephant" style="rounded=1;fillColor=#b0e3e6;strokeColor=#0e8088;strokeWidth=3;shadow=0;html=1;" parent="1" vertex="1">
          <mxGeometry x="490.428356545961" y="694.6027757216876" width="108.41782729805014" height="32.98297557364915" as="geometry" />
        </mxCell>
        <mxCell id="1369" value="Cat" style="rounded=1;fillColor=#b0e3e6;strokeColor=#0e8088;strokeWidth=3;shadow=0;html=1;" parent="1" vertex="1">
          <mxGeometry x="458.32" y="628.6368245743894" width="108.41782729805014" height="32.98297557364915" as="geometry" />
        </mxCell>
        <mxCell id="1370" value="Giraffe" style="rounded=1;fillColor=#b0e3e6;strokeColor=#0e8088;strokeWidth=3;shadow=0;html=1;" parent="1" vertex="1">
          <mxGeometry x="473.74869080779945" y="575.0394892672094" width="108.41782729805014" height="32.98297557364915" as="geometry" />
        </mxCell>
        <mxCell id="1371" value="Dog" style="rounded=1;fillColor=#b0e3e6;strokeColor=#0e8088;strokeWidth=3;shadow=0;html=1;" parent="1" vertex="1">
          <mxGeometry x="500.0191643454039" y="525.5650259067357" width="108.41782729805014" height="32.98297557364915" as="geometry" />
        </mxCell>
        <mxCell id="1372" value="Donkey" style="rounded=1;fillColor=#b0e3e6;strokeColor=#0e8088;strokeWidth=3;shadow=0;html=1;" parent="1" vertex="1">
          <mxGeometry x="562.5679108635098" y="487.22231680236865" width="108.41782729805014" height="32.98297557364915" as="geometry" />
        </mxCell>
        <mxCell id="1373" value="Leopard" style="rounded=1;fillColor=#b0e3e6;strokeColor=#0e8088;strokeWidth=3;shadow=0;html=1;" parent="1" vertex="1">
          <mxGeometry x="683.4954874651811" y="487.22231680236865" width="108.41782729805014" height="32.98297557364915" as="geometry" />
        </mxCell>
        <mxCell id="1374" value="Horse" style="rounded=1;fillColor=#b0e3e6;strokeColor=#0e8088;strokeWidth=3;shadow=0;html=1;" parent="1" vertex="1">
          <mxGeometry x="748.9631754874653" y="537.9336417468543" width="108.41782729805014" height="32.98297557364915" as="geometry" />
        </mxCell>
        <mxCell id="1375" value="Zebra" style="rounded=1;fillColor=#b0e3e6;strokeColor=#0e8088;strokeWidth=3;shadow=0;html=1;" parent="1" vertex="1">
          <mxGeometry x="791.9133147632313" y="587.408105107328" width="108.41782729805014" height="32.98297557364915" as="geometry" />
        </mxCell>
        <mxCell id="1376" value="Gazelle" style="rounded=1;fillColor=#b0e3e6;strokeColor=#0e8088;strokeWidth=3;shadow=0;html=1;" parent="1" vertex="1">
          <mxGeometry x="775.2336490250697" y="694.6027757216876" width="108.41782729805014" height="32.98297557364915" as="geometry" />
        </mxCell>
        <mxCell id="1377" value="" style="edgeStyle=none;endArrow=none;strokeWidth=3;strokeColor=#0e8088;html=1;fillColor=#b0e3e6;" parent="1" source="1350" target="1376" edge="1">
          <mxGeometry x="285.27270194986073" y="264.5884529977794" width="83.3983286908078" height="82.45743893412288" as="geometry">
            <mxPoint x="-1.6217827298050267" y="500.8277942264989" as="sourcePoint" />
            <mxPoint x="81.7765459610028" y="418.3703552923761" as="targetPoint" />
          </mxGeometry>
        </mxCell>
        <mxCell id="1378" value="" style="edgeStyle=none;endArrow=none;strokeWidth=3;strokeColor=#0e8088;html=1;fillColor=#b0e3e6;" parent="1" source="1350" target="1367" edge="1">
          <mxGeometry x="285.27270194986073" y="264.5884529977794" width="83.3983286908078" height="82.45743893412288" as="geometry">
            <mxPoint x="-1.6217827298050267" y="500.8277942264989" as="sourcePoint" />
            <mxPoint x="81.7765459610028" y="418.3703552923761" as="targetPoint" />
          </mxGeometry>
        </mxCell>
        <mxCell id="1379" value="" style="edgeStyle=none;endArrow=none;strokeWidth=3;strokeColor=#0e8088;html=1;fillColor=#b0e3e6;" parent="1" source="1350" target="1358" edge="1">
          <mxGeometry x="285.27270194986073" y="264.5884529977794" width="83.3983286908078" height="82.45743893412288" as="geometry">
            <mxPoint x="-1.6217827298050267" y="500.8277942264989" as="sourcePoint" />
            <mxPoint x="81.7765459610028" y="418.3703552923761" as="targetPoint" />
          </mxGeometry>
        </mxCell>
        <mxCell id="1380" value="" style="edgeStyle=none;endArrow=none;strokeWidth=3;strokeColor=#0e8088;html=1;fillColor=#b0e3e6;" parent="1" source="1350" target="1368" edge="1">
          <mxGeometry x="285.27270194986073" y="264.5884529977794" width="83.3983286908078" height="82.45743893412288" as="geometry">
            <mxPoint x="-1.6217827298050267" y="500.8277942264989" as="sourcePoint" />
            <mxPoint x="81.7765459610028" y="418.3703552923761" as="targetPoint" />
          </mxGeometry>
        </mxCell>
        <mxCell id="1381" value="" style="edgeStyle=none;endArrow=none;strokeWidth=3;strokeColor=#0e8088;html=1;fillColor=#b0e3e6;" parent="1" source="1350" target="1369" edge="1">
          <mxGeometry x="285.27270194986073" y="264.5884529977794" width="83.3983286908078" height="82.45743893412288" as="geometry">
            <mxPoint x="-1.6217827298050267" y="500.8277942264989" as="sourcePoint" />
            <mxPoint x="81.7765459610028" y="418.3703552923761" as="targetPoint" />
          </mxGeometry>
        </mxCell>
        <mxCell id="1382" value="" style="edgeStyle=none;endArrow=none;strokeWidth=3;strokeColor=#0e8088;html=1;fillColor=#b0e3e6;" parent="1" source="1350" target="1370" edge="1">
          <mxGeometry x="285.27270194986073" y="264.5884529977794" width="83.3983286908078" height="82.45743893412288" as="geometry">
            <mxPoint x="-1.6217827298050267" y="500.8277942264989" as="sourcePoint" />
            <mxPoint x="81.7765459610028" y="418.3703552923761" as="targetPoint" />
          </mxGeometry>
        </mxCell>
        <mxCell id="1383" value="" style="edgeStyle=none;endArrow=none;strokeWidth=3;strokeColor=#0e8088;html=1;fillColor=#b0e3e6;" parent="1" source="1350" target="1371" edge="1">
          <mxGeometry x="285.27270194986073" y="264.5884529977794" width="83.3983286908078" height="82.45743893412288" as="geometry">
            <mxPoint x="-1.6217827298050267" y="500.8277942264989" as="sourcePoint" />
            <mxPoint x="81.7765459610028" y="418.3703552923761" as="targetPoint" />
          </mxGeometry>
        </mxCell>
        <mxCell id="1384" value="" style="edgeStyle=none;endArrow=none;strokeWidth=3;strokeColor=#0e8088;html=1;fillColor=#b0e3e6;" parent="1" source="1350" target="1372" edge="1">
          <mxGeometry x="285.27270194986073" y="264.5884529977794" width="83.3983286908078" height="82.45743893412288" as="geometry">
            <mxPoint x="-1.6217827298050267" y="500.8277942264989" as="sourcePoint" />
            <mxPoint x="81.7765459610028" y="418.3703552923761" as="targetPoint" />
          </mxGeometry>
        </mxCell>
        <mxCell id="1385" value="" style="edgeStyle=none;endArrow=none;strokeWidth=3;strokeColor=#0e8088;html=1;fillColor=#b0e3e6;" parent="1" source="1350" target="1373" edge="1">
          <mxGeometry x="285.27270194986073" y="264.5884529977794" width="83.3983286908078" height="82.45743893412288" as="geometry">
            <mxPoint x="-1.6217827298050267" y="500.8277942264989" as="sourcePoint" />
            <mxPoint x="81.7765459610028" y="418.3703552923761" as="targetPoint" />
          </mxGeometry>
        </mxCell>
        <mxCell id="1386" value="" style="edgeStyle=none;endArrow=none;strokeWidth=3;strokeColor=#0e8088;html=1;fillColor=#b0e3e6;" parent="1" source="1350" target="1374" edge="1">
          <mxGeometry x="285.27270194986073" y="264.5884529977794" width="83.3983286908078" height="82.45743893412288" as="geometry">
            <mxPoint x="-1.6217827298050267" y="500.8277942264989" as="sourcePoint" />
            <mxPoint x="81.7765459610028" y="418.3703552923761" as="targetPoint" />
          </mxGeometry>
        </mxCell>
        <mxCell id="1387" value="" style="edgeStyle=none;endArrow=none;strokeWidth=3;strokeColor=#0e8088;html=1;fillColor=#b0e3e6;" parent="1" source="1350" target="1375" edge="1">
          <mxGeometry x="285.27270194986073" y="264.5884529977794" width="83.3983286908078" height="82.45743893412288" as="geometry">
            <mxPoint x="-1.6217827298050267" y="500.8277942264989" as="sourcePoint" />
            <mxPoint x="81.7765459610028" y="418.3703552923761" as="targetPoint" />
          </mxGeometry>
        </mxCell>
        <mxCell id="1388" value="Bee" style="rounded=1;fillColor=#ffe6cc;strokeColor=#d79b00;strokeWidth=3;shadow=0;html=1;" parent="1" vertex="1">
          <mxGeometry x="960.3821727019499" y="432.38934122871945" width="100.07799442896936" height="32.98297557364915" as="geometry" />
        </mxCell>
        <mxCell id="1389" value="Hornet" style="rounded=1;fillColor=#ffe6cc;strokeColor=#d79b00;strokeWidth=3;shadow=0;html=1;" parent="1" vertex="1">
          <mxGeometry x="952.0423398328691" y="374.66913397483347" width="100.07799442896936" height="32.98297557364915" as="geometry" />
        </mxCell>
        <mxCell id="1390" value="Fly" style="rounded=1;fillColor=#ffe6cc;strokeColor=#d79b00;strokeWidth=3;shadow=0;html=1;" parent="1" vertex="1">
          <mxGeometry x="968.7220055710306" y="316.94892672094744" width="100.07799442896936" height="32.98297557364915" as="geometry" />
        </mxCell>
        <mxCell id="1391" value="Termite" style="rounded=1;fillColor=#ffe6cc;strokeColor=#d79b00;strokeWidth=3;shadow=0;html=1;" parent="1" vertex="1">
          <mxGeometry x="1002.0813370473537" y="267.4744633604737" width="100.07799442896936" height="32.98297557364915" as="geometry" />
        </mxCell>
        <mxCell id="1392" value="Mantis" style="rounded=1;fillColor=#ffe6cc;strokeColor=#d79b00;strokeWidth=3;shadow=0;html=1;" parent="1" vertex="1">
          <mxGeometry x="1060.4601671309192" y="218" width="100.07799442896936" height="32.98297557364915" as="geometry" />
        </mxCell>
        <mxCell id="1393" value="Ladybug" style="rounded=1;fillColor=#ffe6cc;strokeColor=#d79b00;strokeWidth=3;shadow=0;html=1;" parent="1" vertex="1">
          <mxGeometry x="1168.8779944289695" y="218" width="100.07799442896936" height="32.98297557364915" as="geometry" />
        </mxCell>
        <mxCell id="1394" value="Butterfly" style="rounded=1;fillColor=#ffe6cc;strokeColor=#d79b00;strokeWidth=3;shadow=0;html=1;" parent="1" vertex="1">
          <mxGeometry x="1227.2568245125349" y="267.4744633604737" width="100.07799442896936" height="32.98297557364915" as="geometry" />
        </mxCell>
        <mxCell id="1395" value="Flea" style="rounded=1;fillColor=#ffe6cc;strokeColor=#d79b00;strokeWidth=3;shadow=0;html=1;" parent="1" vertex="1">
          <mxGeometry x="1268.9559888579388" y="316.94892672094744" width="100.07799442896936" height="32.98297557364915" as="geometry" />
        </mxCell>
        <mxCell id="1396" value="Mosquito" style="rounded=1;fillColor=#ffe6cc;strokeColor=#d79b00;strokeWidth=3;shadow=0;html=1;" parent="1" vertex="1">
          <mxGeometry x="1281.4657381615598" y="374.66913397483347" width="100.07799442896936" height="32.98297557364915" as="geometry" />
        </mxCell>
        <mxCell id="1397" value="Spider" style="rounded=1;fillColor=#ffe6cc;strokeColor=#d79b00;strokeWidth=3;shadow=0;html=1;" parent="1" vertex="1">
          <mxGeometry x="1277.2958217270195" y="424.14359733530716" width="100.07799442896936" height="32.98297557364915" as="geometry" />
        </mxCell>
        <mxCell id="1398" value="Bumblebee" style="rounded=1;fillColor=#ffe6cc;strokeColor=#d79b00;strokeWidth=3;shadow=0;html=1;" parent="1" vertex="1">
          <mxGeometry x="1231.4267409470754" y="481.8638045891932" width="100.07799442896936" height="32.98297557364915" as="geometry" />
        </mxCell>
        <mxCell id="1399" value="" style="edgeStyle=none;endArrow=none;strokeWidth=3;strokeColor=#d79b00;html=1;fillColor=#ffe6cc;" parent="1" source="1351" target="1357" edge="1">
          <mxGeometry x="472.9189415041783" y="235.7283493708364" width="83.3983286908078" height="82.45743893412288" as="geometry">
            <mxPoint x="201.45738161559888" y="250.98297557364916" as="sourcePoint" />
            <mxPoint x="284.85571030640665" y="168.52553663952628" as="targetPoint" />
          </mxGeometry>
        </mxCell>
        <mxCell id="1400" value="" style="edgeStyle=none;endArrow=none;strokeWidth=3;strokeColor=#d79b00;html=1;fillColor=#ffe6cc;" parent="1" source="1351" target="1388" edge="1">
          <mxGeometry x="472.9189415041783" y="235.7283493708364" width="83.3983286908078" height="82.45743893412288" as="geometry">
            <mxPoint x="201.45738161559888" y="250.98297557364916" as="sourcePoint" />
            <mxPoint x="284.85571030640665" y="168.52553663952628" as="targetPoint" />
          </mxGeometry>
        </mxCell>
        <mxCell id="1401" value="" style="edgeStyle=none;endArrow=none;strokeWidth=3;strokeColor=#d79b00;html=1;fillColor=#ffe6cc;" parent="1" source="1351" target="1389" edge="1">
          <mxGeometry x="472.9189415041783" y="235.7283493708364" width="83.3983286908078" height="82.45743893412288" as="geometry">
            <mxPoint x="201.45738161559888" y="250.98297557364916" as="sourcePoint" />
            <mxPoint x="284.85571030640665" y="168.52553663952628" as="targetPoint" />
          </mxGeometry>
        </mxCell>
        <mxCell id="1402" value="" style="edgeStyle=none;endArrow=none;strokeWidth=3;strokeColor=#d79b00;html=1;fillColor=#ffe6cc;" parent="1" source="1351" target="1390" edge="1">
          <mxGeometry x="472.9189415041783" y="235.7283493708364" width="83.3983286908078" height="82.45743893412288" as="geometry">
            <mxPoint x="201.45738161559888" y="250.98297557364916" as="sourcePoint" />
            <mxPoint x="284.85571030640665" y="168.52553663952628" as="targetPoint" />
          </mxGeometry>
        </mxCell>
        <mxCell id="1403" value="" style="edgeStyle=none;endArrow=none;strokeWidth=3;strokeColor=#d79b00;html=1;fillColor=#ffe6cc;" parent="1" source="1351" target="1391" edge="1">
          <mxGeometry x="472.9189415041783" y="235.7283493708364" width="83.3983286908078" height="82.45743893412288" as="geometry">
            <mxPoint x="201.45738161559888" y="250.98297557364916" as="sourcePoint" />
            <mxPoint x="284.85571030640665" y="168.52553663952628" as="targetPoint" />
          </mxGeometry>
        </mxCell>
        <mxCell id="1404" value="" style="edgeStyle=none;endArrow=none;strokeWidth=3;strokeColor=#d79b00;html=1;fillColor=#ffe6cc;" parent="1" source="1351" target="1392" edge="1">
          <mxGeometry x="472.9189415041783" y="235.7283493708364" width="83.3983286908078" height="82.45743893412288" as="geometry">
            <mxPoint x="201.45738161559888" y="250.98297557364916" as="sourcePoint" />
            <mxPoint x="284.85571030640665" y="168.52553663952628" as="targetPoint" />
          </mxGeometry>
        </mxCell>
        <mxCell id="1405" value="" style="edgeStyle=none;endArrow=none;strokeWidth=3;strokeColor=#d79b00;html=1;fillColor=#ffe6cc;" parent="1" source="1351" target="1393" edge="1">
          <mxGeometry x="472.9189415041783" y="235.7283493708364" width="83.3983286908078" height="82.45743893412288" as="geometry">
            <mxPoint x="201.45738161559888" y="250.98297557364916" as="sourcePoint" />
            <mxPoint x="284.85571030640665" y="168.52553663952628" as="targetPoint" />
          </mxGeometry>
        </mxCell>
        <mxCell id="1406" value="" style="edgeStyle=none;endArrow=none;strokeWidth=3;strokeColor=#d79b00;html=1;fillColor=#ffe6cc;" parent="1" source="1351" target="1394" edge="1">
          <mxGeometry x="472.9189415041783" y="235.7283493708364" width="83.3983286908078" height="82.45743893412288" as="geometry">
            <mxPoint x="201.45738161559888" y="250.98297557364916" as="sourcePoint" />
            <mxPoint x="284.85571030640665" y="168.52553663952628" as="targetPoint" />
          </mxGeometry>
        </mxCell>
        <mxCell id="1407" value="" style="edgeStyle=none;endArrow=none;strokeWidth=3;strokeColor=#d79b00;html=1;fillColor=#ffe6cc;" parent="1" source="1351" target="1395" edge="1">
          <mxGeometry x="472.9189415041783" y="235.7283493708364" width="83.3983286908078" height="82.45743893412288" as="geometry">
            <mxPoint x="201.45738161559888" y="250.98297557364916" as="sourcePoint" />
            <mxPoint x="284.85571030640665" y="168.52553663952628" as="targetPoint" />
          </mxGeometry>
        </mxCell>
        <mxCell id="1408" value="" style="edgeStyle=none;endArrow=none;strokeWidth=3;strokeColor=#d79b00;html=1;fillColor=#ffe6cc;" parent="1" source="1351" target="1396" edge="1">
          <mxGeometry x="472.9189415041783" y="235.7283493708364" width="83.3983286908078" height="82.45743893412288" as="geometry">
            <mxPoint x="201.45738161559888" y="250.98297557364916" as="sourcePoint" />
            <mxPoint x="284.85571030640665" y="168.52553663952628" as="targetPoint" />
          </mxGeometry>
        </mxCell>
        <mxCell id="1409" value="" style="edgeStyle=none;endArrow=none;strokeWidth=3;strokeColor=#d79b00;html=1;fillColor=#ffe6cc;" parent="1" source="1351" target="1397" edge="1">
          <mxGeometry x="472.9189415041783" y="235.7283493708364" width="83.3983286908078" height="82.45743893412288" as="geometry">
            <mxPoint x="201.45738161559888" y="250.98297557364916" as="sourcePoint" />
            <mxPoint x="284.85571030640665" y="168.52553663952628" as="targetPoint" />
          </mxGeometry>
        </mxCell>
        <mxCell id="1410" value="" style="edgeStyle=none;endArrow=none;strokeWidth=3;strokeColor=#d79b00;html=1;fillColor=#ffe6cc;" parent="1" source="1351" target="1398" edge="1">
          <mxGeometry x="472.9189415041783" y="235.7283493708364" width="83.3983286908078" height="82.45743893412288" as="geometry">
            <mxPoint x="201.45738161559888" y="250.98297557364916" as="sourcePoint" />
            <mxPoint x="284.85571030640665" y="168.52553663952628" as="targetPoint" />
          </mxGeometry>
        </mxCell>
        <mxCell id="1411" value="Eagle" style="rounded=1;fillColor=#f8cecc;strokeColor=#b85450;strokeWidth=3;shadow=0;html=1;" parent="1" vertex="1">
          <mxGeometry x="1595.5476044568245" y="693.7529385640266" width="100.07799442896936" height="32.98297557364915" as="geometry" />
        </mxCell>
        <mxCell id="1412" value="Pigeon" style="rounded=1;fillColor=#f8cecc;strokeColor=#b85450;strokeWidth=3;shadow=0;html=1;" parent="1" vertex="1">
          <mxGeometry x="1874.9320055710307" y="598.9268837897854" width="100.07799442896936" height="32.98297557364915" as="geometry" />
        </mxCell>
        <mxCell id="1413" value="Hawk" style="rounded=1;fillColor=#f8cecc;strokeColor=#b85450;strokeWidth=3;shadow=0;html=1;" parent="1" vertex="1">
          <mxGeometry x="1495.4696100278552" y="627.7869874167284" width="100.07799442896936" height="32.98297557364915" as="geometry" />
        </mxCell>
        <mxCell id="1414" value="Falcon" style="rounded=1;fillColor=#f8cecc;strokeColor=#b85450;strokeWidth=3;shadow=0;html=1;" parent="1" vertex="1">
          <mxGeometry x="1520.4891086350974" y="574.1896521095484" width="100.07799442896936" height="32.98297557364915" as="geometry" />
        </mxCell>
        <mxCell id="1415" value="Sparrow" style="rounded=1;fillColor=#f8cecc;strokeColor=#b85450;strokeWidth=3;shadow=0;html=1;" parent="1" vertex="1">
          <mxGeometry x="1537.168774373259" y="508.2237009622502" width="100.07799442896936" height="32.98297557364915" as="geometry" />
        </mxCell>
        <mxCell id="1416" value="Stork" style="rounded=1;fillColor=#f8cecc;strokeColor=#b85450;strokeWidth=3;shadow=0;html=1;" parent="1" vertex="1">
          <mxGeometry x="1612.227270194986" y="450.5034937083642" width="100.07799442896936" height="32.98297557364915" as="geometry" />
        </mxCell>
        <mxCell id="1417" value="Flamingo" style="rounded=1;fillColor=#f8cecc;strokeColor=#b85450;strokeWidth=3;shadow=0;html=1;" parent="1" vertex="1">
          <mxGeometry x="1724.8150139275765" y="405.15190229459665" width="100.07799442896936" height="32.98297557364915" as="geometry" />
        </mxCell>
        <mxCell id="1418" value="Penguin" style="rounded=1;fillColor=#f8cecc;strokeColor=#b85450;strokeWidth=3;shadow=0;html=1;" parent="1" vertex="1">
          <mxGeometry x="1804.043426183844" y="475.24072538860105" width="100.07799442896936" height="32.98297557364915" as="geometry" />
        </mxCell>
        <mxCell id="1419" value="Owl" style="rounded=1;fillColor=#f8cecc;strokeColor=#b85450;strokeWidth=3;shadow=0;html=1;" parent="1" vertex="1">
          <mxGeometry x="1849.9125069637882" y="532.960932642487" width="100.07799442896936" height="32.98297557364915" as="geometry" />
        </mxCell>
        <mxCell id="1420" value="Albatross" style="rounded=1;fillColor=#f8cecc;strokeColor=#b85450;strokeWidth=3;shadow=0;html=1;" parent="1" vertex="1">
          <mxGeometry x="1662.2662674094706" y="743.2274019245003" width="100.07799442896936" height="32.98297557364915" as="geometry" />
        </mxCell>
        <mxCell id="1421" value="Pelican" style="rounded=1;fillColor=#f8cecc;strokeColor=#b85450;strokeWidth=3;shadow=0;html=1;" parent="1" vertex="1">
          <mxGeometry x="1737.3247632311977" y="685.5071946706144" width="100.07799442896936" height="32.98297557364915" as="geometry" />
        </mxCell>
        <mxCell id="1422" value="Swallow" style="rounded=1;fillColor=#f8cecc;strokeColor=#b85450;strokeWidth=3;shadow=0;html=1;" parent="1" vertex="1">
          <mxGeometry x="1816.553175487465" y="648.4013471502591" width="100.07799442896936" height="32.98297557364915" as="geometry" />
        </mxCell>
        <mxCell id="1423" value="" style="edgeStyle=none;endArrow=none;strokeWidth=3;strokeColor=#b85450;html=1;fillColor=#f8cecc;" parent="1" source="1352" target="1411" edge="1">
          <mxGeometry x="495.85348189415043" y="305.81717246484084" width="83.3983286908078" height="82.45743893412288" as="geometry">
            <mxPoint x="277.85401114206127" y="438.1348778682458" as="sourcePoint" />
            <mxPoint x="361.2523398328691" y="355.67743893412285" as="targetPoint" />
          </mxGeometry>
        </mxCell>
        <mxCell id="1424" value="" style="edgeStyle=none;endArrow=none;strokeWidth=3;strokeColor=#b85450;html=1;fillColor=#f8cecc;" parent="1" source="1352" target="1413" edge="1">
          <mxGeometry x="495.85348189415043" y="305.81717246484084" width="83.3983286908078" height="82.45743893412288" as="geometry">
            <mxPoint x="277.85401114206127" y="438.1348778682458" as="sourcePoint" />
            <mxPoint x="361.2523398328691" y="355.67743893412285" as="targetPoint" />
          </mxGeometry>
        </mxCell>
        <mxCell id="1425" value="" style="edgeStyle=none;endArrow=none;strokeWidth=3;strokeColor=#b85450;html=1;fillColor=#f8cecc;" parent="1" source="1352" target="1414" edge="1">
          <mxGeometry x="495.85348189415043" y="305.81717246484084" width="83.3983286908078" height="82.45743893412288" as="geometry">
            <mxPoint x="277.85401114206127" y="438.1348778682458" as="sourcePoint" />
            <mxPoint x="361.2523398328691" y="355.67743893412285" as="targetPoint" />
          </mxGeometry>
        </mxCell>
        <mxCell id="1426" value="" style="edgeStyle=none;endArrow=none;strokeWidth=3;strokeColor=#b85450;html=1;fillColor=#f8cecc;" parent="1" source="1352" target="1415" edge="1">
          <mxGeometry x="495.85348189415043" y="305.81717246484084" width="83.3983286908078" height="82.45743893412288" as="geometry">
            <mxPoint x="277.85401114206127" y="438.1348778682458" as="sourcePoint" />
            <mxPoint x="361.2523398328691" y="355.67743893412285" as="targetPoint" />
          </mxGeometry>
        </mxCell>
        <mxCell id="1427" value="" style="edgeStyle=none;endArrow=none;strokeWidth=3;strokeColor=#b85450;html=1;fillColor=#f8cecc;" parent="1" source="1352" target="1416" edge="1">
          <mxGeometry x="495.85348189415043" y="305.81717246484084" width="83.3983286908078" height="82.45743893412288" as="geometry">
            <mxPoint x="277.85401114206127" y="438.1348778682458" as="sourcePoint" />
            <mxPoint x="361.2523398328691" y="355.67743893412285" as="targetPoint" />
          </mxGeometry>
        </mxCell>
        <mxCell id="1428" value="" style="edgeStyle=none;endArrow=none;strokeWidth=3;strokeColor=#b85450;html=1;fillColor=#f8cecc;" parent="1" source="1352" target="1417" edge="1">
          <mxGeometry x="495.85348189415043" y="305.81717246484084" width="83.3983286908078" height="82.45743893412288" as="geometry">
            <mxPoint x="277.85401114206127" y="438.1348778682458" as="sourcePoint" />
            <mxPoint x="361.2523398328691" y="355.67743893412285" as="targetPoint" />
          </mxGeometry>
        </mxCell>
        <mxCell id="1429" value="" style="edgeStyle=none;endArrow=none;strokeWidth=3;strokeColor=#b85450;html=1;fillColor=#f8cecc;" parent="1" source="1352" target="1418" edge="1">
          <mxGeometry x="495.85348189415043" y="305.81717246484084" width="83.3983286908078" height="82.45743893412288" as="geometry">
            <mxPoint x="277.85401114206127" y="438.1348778682458" as="sourcePoint" />
            <mxPoint x="361.2523398328691" y="355.67743893412285" as="targetPoint" />
          </mxGeometry>
        </mxCell>
        <mxCell id="1430" value="" style="edgeStyle=none;endArrow=none;strokeWidth=3;strokeColor=#b85450;html=1;fillColor=#f8cecc;" parent="1" source="1352" target="1419" edge="1">
          <mxGeometry x="495.85348189415043" y="305.81717246484084" width="83.3983286908078" height="82.45743893412288" as="geometry">
            <mxPoint x="277.85401114206127" y="438.1348778682458" as="sourcePoint" />
            <mxPoint x="361.2523398328691" y="355.67743893412285" as="targetPoint" />
          </mxGeometry>
        </mxCell>
        <mxCell id="1431" value="" style="edgeStyle=none;endArrow=none;strokeWidth=3;strokeColor=#b85450;html=1;fillColor=#f8cecc;" parent="1" source="1352" target="1412" edge="1">
          <mxGeometry x="495.85348189415043" y="305.81717246484084" width="83.3983286908078" height="82.45743893412288" as="geometry">
            <mxPoint x="277.85401114206127" y="438.1348778682458" as="sourcePoint" />
            <mxPoint x="361.2523398328691" y="355.67743893412285" as="targetPoint" />
          </mxGeometry>
        </mxCell>
        <mxCell id="1432" value="" style="edgeStyle=none;endArrow=none;strokeWidth=3;strokeColor=#b85450;html=1;fillColor=#f8cecc;" parent="1" source="1352" target="1422" edge="1">
          <mxGeometry x="495.85348189415043" y="305.81717246484084" width="83.3983286908078" height="82.45743893412288" as="geometry">
            <mxPoint x="277.85401114206127" y="438.1348778682458" as="sourcePoint" />
            <mxPoint x="361.2523398328691" y="355.67743893412285" as="targetPoint" />
          </mxGeometry>
        </mxCell>
        <mxCell id="1433" value="" style="edgeStyle=none;endArrow=none;strokeWidth=3;strokeColor=#b85450;html=1;fillColor=#f8cecc;" parent="1" source="1352" target="1421" edge="1">
          <mxGeometry x="495.85348189415043" y="305.81717246484084" width="83.3983286908078" height="82.45743893412288" as="geometry">
            <mxPoint x="277.85401114206127" y="438.1348778682458" as="sourcePoint" />
            <mxPoint x="361.2523398328691" y="355.67743893412285" as="targetPoint" />
          </mxGeometry>
        </mxCell>
        <mxCell id="1434" value="" style="edgeStyle=none;endArrow=none;strokeWidth=3;strokeColor=#b85450;html=1;fillColor=#f8cecc;" parent="1" source="1352" target="1420" edge="1">
          <mxGeometry x="495.85348189415043" y="305.81717246484084" width="83.3983286908078" height="82.45743893412288" as="geometry">
            <mxPoint x="277.85401114206127" y="438.1348778682458" as="sourcePoint" />
            <mxPoint x="361.2523398328691" y="355.67743893412285" as="targetPoint" />
          </mxGeometry>
        </mxCell>
        <mxCell id="1435" value="Perch" style="rounded=1;fillColor=#d5e8d4;strokeColor=#82b366;strokeWidth=3;shadow=0;html=1;" parent="1" vertex="1">
          <mxGeometry x="1263.1299164345403" y="1108.7046484085863" width="100.07799442896936" height="32.98297557364915" as="geometry" />
        </mxCell>
        <mxCell id="1436" value="Mackerel" style="rounded=1;fillColor=#d5e8d4;strokeColor=#82b366;strokeWidth=3;shadow=0;html=1;" parent="1" vertex="1">
          <mxGeometry x="1288.1494150417827" y="1050.9844411547" width="100.07799442896936" height="32.98297557364915" as="geometry" />
        </mxCell>
        <mxCell id="1437" value="Tuna" style="rounded=1;fillColor=#d5e8d4;strokeColor=#82b366;strokeWidth=3;shadow=0;html=1;" parent="1" vertex="1">
          <mxGeometry x="1392.3973259052925" y="1026.2472094744635" width="100.07799442896936" height="32.98297557364915" as="geometry" />
        </mxCell>
        <mxCell id="1438" value="Shark" style="rounded=1;fillColor=#d5e8d4;strokeColor=#82b366;strokeWidth=3;shadow=0;html=1;" parent="1" vertex="1">
          <mxGeometry x="1500.8151532033426" y="1071.598800888231" width="100.07799442896936" height="32.98297557364915" as="geometry" />
        </mxCell>
        <mxCell id="1439" value="Whale" style="rounded=1;fillColor=#b0e3e6;strokeColor=#0e8088;strokeWidth=3;shadow=0;html=1;" parent="1" vertex="1">
          <mxGeometry x="665.5648467966574" y="756.4458549222799" width="100.07799442896936" height="32.98297557364915" as="geometry" />
        </mxCell>
        <mxCell id="1440" value="Bass" style="rounded=1;fillColor=#d5e8d4;strokeColor=#82b366;strokeWidth=3;shadow=0;html=1;" parent="1" vertex="1">
          <mxGeometry x="1554.1900835654596" y="1129.3190081421171" width="100.07799442896936" height="32.98297557364915" as="geometry" />
        </mxCell>
        <mxCell id="1441" value="Eel" style="rounded=1;fillColor=#d5e8d4;strokeColor=#82b366;strokeWidth=3;shadow=0;html=1;" parent="1" vertex="1">
          <mxGeometry x="1554.1900835654596" y="1215.899319022946" width="100.07799442896936" height="32.98297557364915" as="geometry" />
        </mxCell>
        <mxCell id="1443" value="Ray" style="rounded=1;fillColor=#d5e8d4;strokeColor=#82b366;strokeWidth=3;shadow=0;html=1;" parent="1" vertex="1">
          <mxGeometry x="1470.7917548746518" y="1292.997024426351" width="100.07799442896936" height="32.98297557364915" as="geometry" />
        </mxCell>
        <mxCell id="1444" value="Trout" style="rounded=1;fillColor=#d5e8d4;strokeColor=#82b366;strokeWidth=3;shadow=0;html=1;" parent="1" vertex="1">
          <mxGeometry x="1345.69426183844" y="1292.997024426351" width="100.07799442896936" height="32.98297557364915" as="geometry" />
        </mxCell>
        <mxCell id="1445" value="Catfish" style="rounded=1;fillColor=#d5e8d4;strokeColor=#82b366;strokeWidth=3;shadow=0;html=1;" parent="1" vertex="1">
          <mxGeometry x="1242.2803342618383" y="1211.77644707624" width="100.07799442896936" height="32.98297557364915" as="geometry" />
        </mxCell>
        <mxCell id="1446" value="" style="edgeStyle=none;endArrow=none;strokeWidth=3;strokeColor=#82b366;html=1;fillColor=#d5e8d4;" parent="1" source="1353" target="1435" edge="1">
          <mxGeometry x="449.98440111420615" y="380.02886750555143" width="83.3983286908078" height="82.45743893412288" as="geometry">
            <mxPoint x="-242.20991643454045" y="721.1546854182088" as="sourcePoint" />
            <mxPoint x="-158.81158774373262" y="638.6972464840859" as="targetPoint" />
          </mxGeometry>
        </mxCell>
        <mxCell id="1447" value="" style="edgeStyle=none;endArrow=none;strokeWidth=3;strokeColor=#82b366;html=1;fillColor=#d5e8d4;" parent="1" source="1353" target="1436" edge="1">
          <mxGeometry x="449.98440111420615" y="380.02886750555143" width="83.3983286908078" height="82.45743893412288" as="geometry">
            <mxPoint x="-242.20991643454045" y="721.1546854182088" as="sourcePoint" />
            <mxPoint x="-158.81158774373262" y="638.6972464840859" as="targetPoint" />
          </mxGeometry>
        </mxCell>
        <mxCell id="1448" value="" style="edgeStyle=none;endArrow=none;strokeWidth=3;strokeColor=#82b366;html=1;fillColor=#d5e8d4;" parent="1" source="1353" target="1437" edge="1">
          <mxGeometry x="449.98440111420615" y="380.02886750555143" width="83.3983286908078" height="82.45743893412288" as="geometry">
            <mxPoint x="-242.20991643454045" y="721.1546854182088" as="sourcePoint" />
            <mxPoint x="-158.81158774373262" y="638.6972464840859" as="targetPoint" />
          </mxGeometry>
        </mxCell>
        <mxCell id="1449" value="" style="edgeStyle=none;endArrow=none;strokeWidth=3;strokeColor=#82b366;html=1;fillColor=#d5e8d4;" parent="1" source="1353" target="1438" edge="1">
          <mxGeometry x="449.98440111420615" y="380.02886750555143" width="83.3983286908078" height="82.45743893412288" as="geometry">
            <mxPoint x="-242.20991643454045" y="721.1546854182088" as="sourcePoint" />
            <mxPoint x="-158.81158774373262" y="638.6972464840859" as="targetPoint" />
          </mxGeometry>
        </mxCell>
        <mxCell id="1451" value="" style="edgeStyle=none;endArrow=none;strokeWidth=3;strokeColor=#82b366;html=1;fillColor=#d5e8d4;" parent="1" source="1353" target="1440" edge="1">
          <mxGeometry x="449.98440111420615" y="380.02886750555143" width="83.3983286908078" height="82.45743893412288" as="geometry">
            <mxPoint x="-242.20991643454045" y="721.1546854182088" as="sourcePoint" />
            <mxPoint x="-158.81158774373262" y="638.6972464840859" as="targetPoint" />
          </mxGeometry>
        </mxCell>
        <mxCell id="1453" value="" style="edgeStyle=none;endArrow=none;strokeWidth=3;strokeColor=#82b366;html=1;fillColor=#d5e8d4;" parent="1" source="1353" target="1441" edge="1">
          <mxGeometry x="449.98440111420615" y="380.02886750555143" width="83.3983286908078" height="82.45743893412288" as="geometry">
            <mxPoint x="-242.20991643454045" y="721.1546854182088" as="sourcePoint" />
            <mxPoint x="-158.81158774373262" y="638.6972464840859" as="targetPoint" />
          </mxGeometry>
        </mxCell>
        <mxCell id="1454" value="" style="edgeStyle=none;endArrow=none;strokeWidth=3;strokeColor=#82b366;html=1;fillColor=#d5e8d4;" parent="1" source="1353" target="1443" edge="1">
          <mxGeometry x="449.98440111420615" y="380.02886750555143" width="83.3983286908078" height="82.45743893412288" as="geometry">
            <mxPoint x="-242.20991643454045" y="721.1546854182088" as="sourcePoint" />
            <mxPoint x="-158.81158774373262" y="638.6972464840859" as="targetPoint" />
          </mxGeometry>
        </mxCell>
        <mxCell id="1455" value="" style="edgeStyle=none;endArrow=none;strokeWidth=3;strokeColor=#82b366;html=1;fillColor=#d5e8d4;" parent="1" source="1353" target="1444" edge="1">
          <mxGeometry x="449.98440111420615" y="380.02886750555143" width="83.3983286908078" height="82.45743893412288" as="geometry">
            <mxPoint x="-242.20991643454045" y="721.1546854182088" as="sourcePoint" />
            <mxPoint x="-158.81158774373262" y="638.6972464840859" as="targetPoint" />
          </mxGeometry>
        </mxCell>
        <mxCell id="1456" value="" style="edgeStyle=none;endArrow=none;strokeWidth=3;strokeColor=#82b366;html=1;fillColor=#d5e8d4;" parent="1" source="1353" target="1445" edge="1">
          <mxGeometry x="449.98440111420615" y="380.02886750555143" width="83.3983286908078" height="82.45743893412288" as="geometry">
            <mxPoint x="-242.20991643454045" y="721.1546854182088" as="sourcePoint" />
            <mxPoint x="-158.81158774373262" y="638.6972464840859" as="targetPoint" />
          </mxGeometry>
        </mxCell>
        <mxCell id="1514" style="edgeStyle=orthogonalEdgeStyle;rounded=0;html=1;exitX=0.75;exitY=0;entryX=0.75;entryY=0;startArrow=none;startFill=0;endArrow=block;endFill=1;jettySize=auto;orthogonalLoop=1;strokeColor=#b85450;strokeWidth=6;fontSize=20;fontColor=#2F5B7C;fillColor=#f8cecc;" parent="1" source="1414" target="1414" edge="1">
          <mxGeometry relative="1" as="geometry" />
        </mxCell>
        <mxCell id="1515" value="Dose prediction" style="ellipse;whiteSpace=wrap;html=1;shadow=0;fontFamily=Helvetica;fontSize=30;align=center;strokeColor=#36393d;strokeWidth=6;fillColor=#ffff88;fontStyle=1;" parent="1" vertex="1">
          <mxGeometry x="1054.6222841225626" y="716.8675055514434" width="225.17548746518105" height="222.63508512213176" as="geometry" />
        </mxCell>
        <mxCell id="1516" value="DL" style="ellipse;whiteSpace=wrap;html=1;shadow=0;fontFamily=Helvetica;fontSize=20;align=center;strokeWidth=3;fillColor=#dae8fc;strokeColor=#6c8ebf;" parent="1" vertex="1">
          <mxGeometry x="872.9367130919221" y="1116.9521983715767" width="100.07799442896936" height="98.94892672094744" as="geometry" />
        </mxCell>
        <mxCell id="1517" value="Organisation" style="rounded=1;fillColor=#dae8fc;strokeColor=#6c8ebf;strokeWidth=3;shadow=0;html=1;" parent="1" vertex="1">
          <mxGeometry x="766.6085515320335" y="1067.474759437454" width="100.07799442896936" height="32.98297557364915" as="geometry" />
        </mxCell>
        <mxCell id="1518" value="Oak" style="rounded=1;fillColor=#dae8fc;strokeColor=#6c8ebf;strokeWidth=3;shadow=0;html=1;" parent="1" vertex="1">
          <mxGeometry x="856.2617548746518" y="1018.00029607698" width="100.07799442896936" height="32.98297557364915" as="geometry" />
        </mxCell>
        <mxCell id="1519" value="Birch" style="rounded=1;fillColor=#dae8fc;strokeColor=#6c8ebf;strokeWidth=3;shadow=0;html=1;" parent="1" vertex="1">
          <mxGeometry x="973.0194150417827" y="1026.2460399703923" width="100.07799442896936" height="32.98297557364915" as="geometry" />
        </mxCell>
        <mxCell id="1520" value="Silverfern" style="rounded=1;fillColor=#dae8fc;strokeColor=#6c8ebf;strokeWidth=3;shadow=0;html=1;" parent="1" vertex="1">
          <mxGeometry x="1027.2283286908078" y="1083.9662472242785" width="100.07799442896936" height="32.98297557364915" as="geometry" />
        </mxCell>
        <mxCell id="1521" value="Personal &#xa;Development" style="rounded=1;fillColor=#dae8fc;strokeColor=#6c8ebf;strokeWidth=3;shadow=0;html=1;" parent="1" vertex="1">
          <mxGeometry x="1048.0779108635097" y="1149.9321983715768" width="100.07799442896936" height="32.98297557364915" as="geometry" />
        </mxCell>
        <mxCell id="1522" value="Pine" style="rounded=1;fillColor=#dae8fc;strokeColor=#6c8ebf;strokeWidth=3;shadow=0;html=1;" parent="1" vertex="1">
          <mxGeometry x="654.0208077994429" y="1083.9662472242785" width="100.07799442896936" height="32.98297557364915" as="geometry" />
        </mxCell>
        <mxCell id="1523" value="Lime" style="rounded=1;fillColor=#dae8fc;strokeColor=#6c8ebf;strokeWidth=3;shadow=0;html=1;" parent="1" vertex="1">
          <mxGeometry x="991.7840389972146" y="1240.6353811991119" width="100.07799442896936" height="32.98297557364915" as="geometry" />
        </mxCell>
        <mxCell id="1524" value="Chestnut" style="rounded=1;fillColor=#dae8fc;strokeColor=#6c8ebf;strokeWidth=3;shadow=0;html=1;" parent="1" vertex="1">
          <mxGeometry x="950.0848746518107" y="1290.1098445595856" width="100.07799442896936" height="32.98297557364915" as="geometry" />
        </mxCell>
        <mxCell id="1525" value="Beech" style="rounded=1;fillColor=#dae8fc;strokeColor=#6c8ebf;strokeWidth=3;shadow=0;html=1;" parent="1" vertex="1">
          <mxGeometry x="833.3272144846796" y="1290.1098445595856" width="100.07799442896936" height="32.98297557364915" as="geometry" />
        </mxCell>
        <mxCell id="1526" value="Poplar" style="rounded=1;fillColor=#dae8fc;strokeColor=#6c8ebf;strokeWidth=3;shadow=0;html=1;" parent="1" vertex="1">
          <mxGeometry x="716.5695543175488" y="1261.2497409326427" width="100.07799442896936" height="32.98297557364915" as="geometry" />
        </mxCell>
        <mxCell id="1527" value="Willow" style="rounded=1;fillColor=#dae8fc;strokeColor=#6c8ebf;strokeWidth=3;shadow=0;html=1;" parent="1" vertex="1">
          <mxGeometry x="629.0013091922006" y="1215.898149518875" width="100.07799442896936" height="32.98297557364915" as="geometry" />
        </mxCell>
        <mxCell id="1528" value="" style="edgeStyle=none;endArrow=none;strokeWidth=3;strokeColor=#6c8ebf;html=1;fillColor=#dae8fc;" parent="1" source="1516" target="1517" edge="1">
          <mxGeometry x="-779.3069637883009" y="-32.25832716506292" width="83.3983286908078" height="82.45743893412288" as="geometry">
            <mxPoint x="-651.1630362116991" y="387.20088823094" as="sourcePoint" />
            <mxPoint x="-567.7647075208913" y="304.7434492968172" as="targetPoint" />
          </mxGeometry>
        </mxCell>
        <mxCell id="1529" value="Acacia" style="rounded=1;fillColor=#dae8fc;strokeColor=#6c8ebf;strokeWidth=3;shadow=0;html=1;" parent="1" vertex="1">
          <mxGeometry x="662.3606406685237" y="1158.177942264989" width="100.07799442896936" height="32.98297557364915" as="geometry" />
        </mxCell>
        <mxCell id="1530" value="" style="edgeStyle=none;endArrow=none;strokeWidth=3;strokeColor=#6c8ebf;html=1;fillColor=#dae8fc;" parent="1" source="1516" target="1518" edge="1">
          <mxGeometry x="-779.3069637883009" y="-32.25832716506292" width="83.3983286908078" height="82.45743893412288" as="geometry">
            <mxPoint x="-651.1630362116991" y="387.20088823094" as="sourcePoint" />
            <mxPoint x="-567.7647075208913" y="304.7434492968172" as="targetPoint" />
          </mxGeometry>
        </mxCell>
        <mxCell id="1531" value="" style="edgeStyle=none;endArrow=none;strokeWidth=3;strokeColor=#6c8ebf;html=1;fillColor=#dae8fc;" parent="1" source="1516" target="1519" edge="1">
          <mxGeometry x="-779.3069637883009" y="-32.25832716506292" width="83.3983286908078" height="82.45743893412288" as="geometry">
            <mxPoint x="-651.1630362116991" y="387.20088823094" as="sourcePoint" />
            <mxPoint x="-567.7647075208913" y="304.7434492968172" as="targetPoint" />
          </mxGeometry>
        </mxCell>
        <mxCell id="1532" value="" style="edgeStyle=none;endArrow=none;strokeWidth=3;strokeColor=#6c8ebf;html=1;fillColor=#dae8fc;" parent="1" source="1516" target="1520" edge="1">
          <mxGeometry x="-779.3069637883009" y="-32.25832716506292" width="83.3983286908078" height="82.45743893412288" as="geometry">
            <mxPoint x="-651.1630362116991" y="387.20088823094" as="sourcePoint" />
            <mxPoint x="-567.7647075208913" y="304.7434492968172" as="targetPoint" />
          </mxGeometry>
        </mxCell>
        <mxCell id="1533" value="" style="edgeStyle=none;endArrow=none;strokeWidth=3;strokeColor=#6c8ebf;html=1;fillColor=#dae8fc;" parent="1" source="1516" target="1521" edge="1">
          <mxGeometry x="-779.3069637883009" y="-32.25832716506292" width="83.3983286908078" height="82.45743893412288" as="geometry">
            <mxPoint x="-651.1630362116991" y="387.20088823094" as="sourcePoint" />
            <mxPoint x="-567.7647075208913" y="304.7434492968172" as="targetPoint" />
          </mxGeometry>
        </mxCell>
        <mxCell id="1534" value="" style="edgeStyle=none;endArrow=none;strokeWidth=3;strokeColor=#6c8ebf;html=1;fillColor=#dae8fc;" parent="1" source="1516" target="1522" edge="1">
          <mxGeometry x="-779.3069637883009" y="-32.25832716506292" width="83.3983286908078" height="82.45743893412288" as="geometry">
            <mxPoint x="-651.1630362116991" y="387.20088823094" as="sourcePoint" />
            <mxPoint x="-567.7647075208913" y="304.7434492968172" as="targetPoint" />
          </mxGeometry>
        </mxCell>
        <mxCell id="1535" value="" style="edgeStyle=none;endArrow=none;strokeWidth=3;strokeColor=#6c8ebf;html=1;fillColor=#dae8fc;" parent="1" source="1516" target="1523" edge="1">
          <mxGeometry x="-779.3069637883009" y="-32.25832716506292" width="83.3983286908078" height="82.45743893412288" as="geometry">
            <mxPoint x="-651.1630362116991" y="387.20088823094" as="sourcePoint" />
            <mxPoint x="-567.7647075208913" y="304.7434492968172" as="targetPoint" />
          </mxGeometry>
        </mxCell>
        <mxCell id="1536" value="" style="edgeStyle=none;endArrow=none;strokeWidth=3;strokeColor=#6c8ebf;html=1;fillColor=#dae8fc;" parent="1" source="1516" target="1524" edge="1">
          <mxGeometry x="-779.3069637883009" y="-32.25832716506292" width="83.3983286908078" height="82.45743893412288" as="geometry">
            <mxPoint x="-651.1630362116991" y="387.20088823094" as="sourcePoint" />
            <mxPoint x="-567.7647075208913" y="304.7434492968172" as="targetPoint" />
          </mxGeometry>
        </mxCell>
        <mxCell id="1537" value="" style="edgeStyle=none;endArrow=none;strokeWidth=3;strokeColor=#6c8ebf;html=1;fillColor=#dae8fc;" parent="1" source="1516" target="1525" edge="1">
          <mxGeometry x="-779.3069637883009" y="-32.25832716506292" width="83.3983286908078" height="82.45743893412288" as="geometry">
            <mxPoint x="-651.1630362116991" y="387.20088823094" as="sourcePoint" />
            <mxPoint x="-567.7647075208913" y="304.7434492968172" as="targetPoint" />
          </mxGeometry>
        </mxCell>
        <mxCell id="1538" value="" style="edgeStyle=none;endArrow=none;strokeWidth=3;strokeColor=#6c8ebf;html=1;fillColor=#dae8fc;" parent="1" source="1516" target="1526" edge="1">
          <mxGeometry x="-779.3069637883009" y="-32.25832716506292" width="83.3983286908078" height="82.45743893412288" as="geometry">
            <mxPoint x="-651.1630362116991" y="387.20088823094" as="sourcePoint" />
            <mxPoint x="-567.7647075208913" y="304.7434492968172" as="targetPoint" />
          </mxGeometry>
        </mxCell>
        <mxCell id="1539" value="" style="edgeStyle=none;endArrow=none;strokeWidth=3;strokeColor=#6c8ebf;html=1;fillColor=#dae8fc;" parent="1" source="1516" target="1527" edge="1">
          <mxGeometry x="-779.3069637883009" y="-32.25832716506292" width="83.3983286908078" height="82.45743893412288" as="geometry">
            <mxPoint x="-651.1630362116991" y="387.20088823094" as="sourcePoint" />
            <mxPoint x="-567.7647075208913" y="304.7434492968172" as="targetPoint" />
          </mxGeometry>
        </mxCell>
        <mxCell id="1540" value="" style="edgeStyle=none;endArrow=none;strokeWidth=3;strokeColor=#6c8ebf;html=1;fillColor=#dae8fc;" parent="1" source="1516" target="1529" edge="1">
          <mxGeometry x="-779.3069637883009" y="-32.25832716506292" width="83.3983286908078" height="82.45743893412288" as="geometry">
            <mxPoint x="-651.1630362116991" y="387.20088823094" as="sourcePoint" />
            <mxPoint x="-567.7647075208913" y="304.7434492968172" as="targetPoint" />
          </mxGeometry>
        </mxCell>
        <mxCell id="1542" style="edgeStyle=none;rounded=0;html=1;exitX=0.5;exitY=1;endArrow=none;endFill=0;jettySize=auto;orthogonalLoop=1;strokeColor=#6c8ebf;strokeWidth=2;fillColor=#dae8fc;fontSize=20;fontColor=#23445D;" parent="1" source="1529" target="1529" edge="1">
          <mxGeometry relative="1" as="geometry" />
        </mxCell>
        <mxCell id="104TM-tIM6dC0J846HSY-1542" value="" style="edgeStyle=none;endArrow=none;strokeWidth=3;strokeColor=#0e8088;html=1;fillColor=#b0e3e6;" parent="1" source="1350" target="1439" edge="1">
          <mxGeometry x="285.27270194986073" y="264.5884529977794" width="83.3983286908078" height="82.45743893412288" as="geometry">
            <mxPoint x="650.9701392757661" y="695.0150629163583" as="sourcePoint" />
            <mxPoint x="605.1010584958218" y="765.1038860103628" as="targetPoint" />
          </mxGeometry>
        </mxCell>
        <mxCell id="3Zd3EnEe8cSmom2aT_vs-1542" value="" style="verticalLabelPosition=bottom;verticalAlign=top;html=1;shape=mxgraph.basic.star;fillColor=none;" vertex="1" parent="1">
          <mxGeometry x="1064.6300835654597" y="714.8060695780903" width="204.32590529247912" height="202.02072538860105" as="geometry" />
        </mxCell>
        <mxCell id="1363" style="endArrow=none;strokeWidth=6;strokeColor=#006EAF;html=1;fillColor=#1ba1e2;" parent="1" target="1516" edge="1">
          <mxGeometry relative="1" as="geometry">
            <mxPoint x="1100" y="920" as="sourcePoint" />
          </mxGeometry>
        </mxCell>
      </root>
    </mxGraphModel>
  </diagram>
</mxfile>
